<?xml version="1.0" encoding="iso-8859-1"?>
<!-- Generator: Adobe Illustrator 19.0.0, SVG Export Plug-In . SVG Version: 6.00 Build 0)  -->
<svg version="1.1" id="Layer_1" xmlns="http://www.w3.org/2000/svg" xmlns:xlink="http://www.w3.org/1999/xlink" x="0px" y="0px"
	 viewBox="0 0 512 512" style="enable-background:new 0 0 512 512;" xml:space="preserve">
<g>
	<g>
		<circle cx="256" cy="155.314" r="53.556"/>
	</g>
</g>
<g>
	<g>
		<path d="M416.669,219.582h-96.402c-24.114,0-46.366,7.97-64.268,21.418c-17.902-13.448-40.153-21.418-64.268-21.418H95.331
			c-29.578,0-53.557-23.977-53.557-53.557v128.536c0,76.904,62.343,139.247,139.247,139.247c27.606,0,53.336-8.035,74.979-21.892
			c21.643,13.857,47.373,21.892,74.979,21.892c76.904,0,139.247-62.343,139.247-139.247V166.025
			C470.226,195.604,446.248,219.582,416.669,219.582z M223.866,358.828h-42.845c-35.494,0-64.268-28.774-64.268-64.268h74.979
			c17.746,0,32.134,14.387,32.134,32.134V358.828z M330.979,358.828h-42.845v-32.134c0-17.747,14.387-32.134,32.134-32.134h74.979
			C395.247,330.055,366.473,358.828,330.979,358.828z"/>
	</g>
</g>
<g>
	<g>
		<path d="M448.803,476.455v-57.557c-9.709,9.205-20.489,17.287-32.134,24.037v33.52c-3.323,3.775-5.356,8.71-5.356,14.123
			c0,11.812,9.61,21.423,21.423,21.423s21.423-9.61,21.423-21.423C454.159,485.165,452.126,480.23,448.803,476.455z"/>
	</g>
</g>
<g>
	<g>
		<path d="M295.68,57.983l-0.001,0.013C286.403,36.049,272.83,16.362,256,0c-16.83,16.363-30.404,36.051-39.68,57.998l-0.001-0.016
			c-23.643-2.938-47.479-1.017-70.062,5.377c5.628,22.25,15.558,43.399,29.428,62.097C187.833,92.885,219.247,69.623,256,69.623
			c36.752,0,68.167,23.262,80.313,55.832c13.87-18.695,23.802-39.844,29.429-62.094C343.16,56.967,319.323,55.044,295.68,57.983z"/>
	</g>
</g>
<g>
</g>
<g>
</g>
<g>
</g>
<g>
</g>
<g>
</g>
<g>
</g>
<g>
</g>
<g>
</g>
<g>
</g>
<g>
</g>
<g>
</g>
<g>
</g>
<g>
</g>
<g>
</g>
<g>
</g>
</svg>
