<?xml version="1.0" encoding="iso-8859-1"?>
<!-- Generator: Adobe Illustrator 18.1.1, SVG Export Plug-In . SVG Version: 6.00 Build 0)  -->
<svg version="1.1" id="Capa_1" xmlns="http://www.w3.org/2000/svg" xmlns:xlink="http://www.w3.org/1999/xlink" x="0px" y="0px"
	 viewBox="0 0 348.304 348.304" style="enable-background:new 0 0 348.304 348.304;" xml:space="preserve">
<g>
	<g>
		<path style="fill:#010002;" d="M333.263,267.835c0,0-4.272-10.585-4.583-11.194c-0.304-0.585-29.22-57.419-21.469-99.372
			c8.819,0.996,12.93-2.035,14.553-4.618c8.091-12.853-19.076-34.811-36.428-45.748c-17.728-11.17-35.348-18.115-45.963-18.115
			c-6.564,0-9.625,2.679-11.063,4.929c-3.192,5.096-1.134,12.041,6.092,20.675c-0.161,31.004,7.99,69.765,8.372,71.525
			c0.119,0.567,3.216,13.849,5.561,20.299l16.665,43.075l10.824,24.058c-1.098,2.488-3.747,7.16-8.461,7.16
			c-1.408,0-2.96-0.346-4.672-1.062l-50.468-112.201l1.647-0.734c0.549-0.263,0.913-0.734,1.158-1.247l4.111,9.207l8.592-3.831
			l-9.738-21.833l-8.61,3.849l4.111,9.189c-0.555-0.143-1.146-0.209-1.712,0.054l-1.647,0.758l-9.923-22.042l1.73-0.752
			c0.549-0.263,0.913-0.746,1.164-1.247l4.111,9.189l8.61-3.855l-9.762-21.815l-8.592,3.849l4.099,9.207
			c-0.549-0.155-1.134-0.203-1.712,0.048l-1.712,0.77l-9.607-21.367l1.796-0.794c0.549-0.269,0.913-0.734,1.152-1.241l4.111,9.183
			l8.598-3.831l-9.738-21.809l-8.61,3.849l4.111,9.207c-0.549-0.161-1.14-0.221-1.695,0.048l-1.814,0.788l-9.821-21.785l1.862-0.841
			c0.567-0.239,0.937-0.734,1.181-1.241l3.932,8.777l8.592-3.831l-9.744-21.839l-8.61,3.855l4.296,9.631
			c-0.549-0.155-1.146-0.203-1.712,0.042l-1.856,0.835L141.058,9.105c-0.531-1.181-1.533-2.017-2.697-2.482
			C135.712,4.589,128.73,0,119.792,0C109.374,0,94.57,6.295,83.167,36.32l-1.366,3.646C78.072,50.146,71.126,69.108,61.454,75.23
			c-10.472,6.552-32.066,13.193-47.383,16.862c-1.408,0.34-2.596,1.253-3.264,2.518c-0.686,1.265-0.794,2.769-0.28,4.129
			l0.632,1.695c0.734,1.999,2.613,3.318,4.726,3.318h0.036c10.006-0.101,41.72-2.053,55.939-9.69
			c9.29-5.012,24.345-21.385,32.364-30.556l114.97,255.483c8.497,18.885,24.506,29.315,45.104,29.315
			c10.472,0,21.612-2.637,33.122-7.793C332.576,324.657,346.282,296.732,333.263,267.835z M268.474,132.399
			c-19.058-12.25-31.481-26.928-27.722-32.788c3.753-5.854,22.274-0.68,41.356,11.57c19.064,12.25,31.481,26.928,27.722,32.788
			C306.06,149.822,287.55,144.637,268.474,132.399z"/>
	</g>
</g>
<g>
</g>
<g>
</g>
<g>
</g>
<g>
</g>
<g>
</g>
<g>
</g>
<g>
</g>
<g>
</g>
<g>
</g>
<g>
</g>
<g>
</g>
<g>
</g>
<g>
</g>
<g>
</g>
<g>
</g>
</svg>
