<svg id="Capa_1" enable-background="new 0 0 512 512" height="512" viewBox="0 0 512 512" width="512" xmlns="http://www.w3.org/2000/svg"><path d="m428.544 82.822c.576-4.102-2.282-7.894-6.385-8.47-4.091-.573-7.894 2.282-8.469 6.385-.177 1.256-4.269 31.19.053 68.609 5.8 50.216 24.257 89.673 53.377 114.106 1.405 1.179 3.115 1.755 4.816 1.754 2.141 0 4.266-.911 5.749-2.679 2.663-3.173 2.249-7.904-.925-10.566-63.471-53.257-48.405-167.767-48.216-169.139z"/><path d="m475.803 78.436c-4.006-1.054-8.107 1.339-9.161 5.344-.822 3.125-19.906 77.173.189 133.445 1.096 3.067 3.983 4.979 7.063 4.979.837 0 1.688-.141 2.522-.439 3.9-1.393 5.934-5.685 4.541-9.585-18.519-51.854.001-123.864.19-124.585 1.053-4.005-1.339-8.105-5.344-9.159z"/><path d="m504.5 0c-4.143 0-7.5 3.358-7.5 7.5 0 9.312-13.29 19.937-36.462 29.151-3.849 1.53-5.729 5.891-4.198 9.74s5.891 5.73 9.741 4.198c13.09-5.205 23.407-10.849 30.919-16.901v249.749h-23.063c-43.032-24.633-71.818-61.383-85.553-109.278-10.937-38.136-10.199-75.87-7.219-102.468 20.282-3.09 39.074-6.956 55.854-11.547 3.995-1.093 6.348-5.218 5.255-9.213s-5.22-6.347-9.214-5.255c-46.674 12.771-109.555 19.804-177.06 19.804-65.752 0-127.477-6.722-173.805-18.929-49.543-13.053-67.195-28.731-67.195-39.051 0-4.142-3.357-7.5-7.5-7.5s-7.5 3.358-7.5 7.5v497c0 4.142 3.357 7.5 7.5 7.5h497c4.143 0 7.5-3.358 7.5-7.5v-497c0-4.142-3.357-7.5-7.5-7.5zm-26.344 298.437h18.844v140.266c-8.945-8.724-21.156-14.113-34.607-14.113h-8.083zm-112.3-224.595c-2.775 27.745-2.974 65.803 8.11 104.452 14.542 50.708 44.679 89.871 89.616 116.485l-16.7 88.351h-306.901c-4.143 0-7.5 3.358-7.5 7.5s3.357 7.5 7.5 7.5h304.066l-5.002 26.46h-58.104c-17.747 0-33.338 9.373-42.107 23.423-8.769-14.05-24.36-23.423-42.107-23.423h-81.453c-17.747 0-33.338 9.373-42.107 23.423-8.769-14.05-24.36-23.423-42.107-23.423h-58.105l-5.002-26.46h42.287c4.143 0 7.5-3.358 7.5-7.5s-3.357-7.5-7.5-7.5h-45.122l-16.7-88.351c44.938-26.614 75.074-65.778 89.616-116.485 11.086-38.656 10.885-76.722 8.108-104.468 33.826 4.352 71.185 6.654 109.858 6.654 38.758 0 76.081-2.292 109.856-6.638zm-332.012 224.595 23.846 126.154h-8.083c-13.452 0-25.662 5.39-34.607 14.113v-140.267zm44.53-237.381c15.892 4.187 33.528 7.742 52.459 10.624 2.981 26.598 3.72 64.337-7.218 102.479-13.735 47.895-42.521 84.646-85.553 109.278h-23.062v-249.82c15.602 12.586 40.851 21.505 63.374 27.439zm-63.374 413.141c0-19.083 15.524-34.607 34.607-34.607h17.102c.007 0 .015.001.022.001s.014-.001.021-.001h64.307c19.083 0 34.607 15.524 34.607 34.607v22.803h-150.666zm165.667 0c0-19.083 15.524-34.607 34.606-34.607h81.453c19.082 0 34.606 15.524 34.606 34.607v22.803h-150.665zm165.666 0c0-19.083 15.524-34.607 34.607-34.607h64.307c.007 0 .014.001.021.001s.015-.001.022-.001h17.102c19.083 0 34.607 15.524 34.607 34.607v22.803h-150.666z"/><path d="m256 46.77c76.143 0 139.293-13.805 157.143-34.351 2.717-3.127 2.384-7.864-.743-10.581s-7.863-2.384-10.581.743c-6.562 7.554-24.74 14.95-49.873 20.292-26.989 5.738-61.063 8.897-95.946 8.897-78.243 0-133.526-15.039-145.818-29.189-2.718-3.127-7.455-3.459-10.581-.743-3.127 2.716-3.46 7.453-.743 10.581 17.849 20.547 81 34.351 157.142 34.351z"/><path d="m35.239 251.961c-3.174 2.663-3.588 7.393-.925 10.566 1.483 1.768 3.608 2.679 5.749 2.679 1.701 0 3.412-.576 4.816-1.754 29.121-24.433 47.578-63.89 53.378-114.106 4.321-37.419.229-67.353.053-68.609-.575-4.102-4.371-6.957-8.469-6.385-4.103.576-6.961 4.368-6.385 8.47.161 1.151 15.422 115.742-48.217 169.139z"/><path d="m35.583 221.765c.834.298 1.685.439 2.522.439 3.08 0 5.968-1.913 7.063-4.979 20.096-56.272 1.012-130.32.189-133.445-1.054-4.005-5.156-6.398-9.158-5.344-4.006 1.052-6.399 5.153-5.349 9.158.189.721 18.709 72.731.19 124.585-1.39 3.902.643 8.193 4.543 9.586z"/></svg>