<?xml version="1.0" encoding="iso-8859-1"?>
<!-- Generator: Adobe Illustrator 19.0.0, SVG Export Plug-In . SVG Version: 6.00 Build 0)  -->
<svg version="1.1" id="Capa_1" xmlns="http://www.w3.org/2000/svg" xmlns:xlink="http://www.w3.org/1999/xlink" x="0px" y="0px"
	 viewBox="0 0 429.2 429.2" style="enable-background:new 0 0 429.2 429.2;" xml:space="preserve">
<g>
	<g>
		<path d="M410.4,83.6c-8.8-10-22-16.4-36.4-18c1.2-0.8,2.4-2,3.2-2.8c6.8-6.8,10.8-16,10.8-26s-4-19.2-10.8-26S361.2,0,351.2,0
			h-272c-10,0-19.6,4-26,10.8c-6.8,6.8-10.8,16-10.8,26s4,19.2,10.8,26c1.2,1.2,2,2,3.2,2.8c-14.4,1.6-27.6,8-37.6,18
			c-11.2,11.2-18.4,26.8-18.4,44s6.8,32.8,18.4,44C30,182.8,45.6,190,62.8,190c8.8,0,16.8-1.6,24.4-4.8c2.8-1.2,5.6-2.8,8.4-4.4
			c4,5.2,8.4,10.4,12.8,14.8c18.8,18.8,42.4,32,69.2,38v120h-24.4c-14,0-27.2,5.6-36.4,15.2c-9.2,9.2-15.2,22-15.2,36.4v11.2
			c0,7.2,5.6,12.8,12.8,12.8h200.4c7.2,0,12.8-5.6,12.8-12.8v-11.2c0-14-5.6-26.8-15.2-36.4c-9.2-9.2-22-15.2-36.4-15.2h-24.4v-120
			c26.8-5.6,50.4-19.2,69.2-38c4.8-4.8,9.2-9.6,12.8-14.8c2.8,1.6,5.6,3.2,8.4,4.4c7.6,3.2,15.6,4.8,24.4,4.8
			c17.2,0,32.8-6.8,44-18.4c11.2-11.2,18.4-26.8,18.4-44C428.8,110.4,422,94.8,410.4,83.6z M77.6,161.6c-4.4,2-9.2,2.8-14.4,2.8
			c-10,0-19.2-4-26-10.8c-6.8-6.8-10.8-16-10.8-26s4-19.2,10.8-26c6.8-6.8,16-10.8,26-10.8c1.6,0,3.2,0,4.8,0.4v6c0,2.8,0,6,0.4,8.8
			c0,0.8,0,1.2,0,2c0,2.4,0.4,4.8,0.8,7.2c0,0.4,0,0.8,0,1.2c2.4,14.8,6.8,29.2,13.6,42.4C81.2,160,79.6,160.8,77.6,161.6z
			 M276.4,378.8c7.6,0,14,2.8,18.8,7.6c4.4,4.4,7.2,10,7.6,16.4H127.6c0.4-6.4,3.2-12.4,7.6-16.4c4.8-4.8,11.2-7.6,18.4-7.6h37.2
			h48.4H276.4z M204,353.2V236.4c1.2,0,2.4,0,3.6,0h15.2c1.2,0,2.4,0,4,0v116.8H204z M336.8,81.2v15.6c0,3.6-0.4,7.2-0.4,10.4
			c0,0.8,0,1.6-0.4,2c-0.8,7.2-2.4,14-4.4,20.4c0,0.4-0.4,0.8-0.4,1.2c-2,6.8-4.8,13.2-8,19.2c-0.4,0.8-0.8,1.2-1.2,2
			c-5.2,9.2-11.6,17.6-19.2,25.2c-17.6,18.4-41.6,30.4-68,33.2h-0.4c-3.6,0.4-7.6,0.4-11.2,0.4H208c-3.6,0-7.2-0.4-10.8-0.4
			c-0.4,0-0.8,0-1.2,0c-26.4-2.8-50.4-14.8-68.4-32.8c-7.6-7.6-14-16-19.2-25.2c-0.4-0.4-0.8-1.2-1.2-2c-3.2-6-6-12.4-8-19.2
			c0-0.4-0.4-0.8-0.4-1.2c-2-6.8-3.6-13.6-4.4-20.8c0-0.8,0-1.2-0.4-2c-0.4-3.6-0.4-6.8-0.4-10.4V81.2v-7.6h243.2V81.2z M80.8,47.6
			h-1.6c-3.2,0-6-1.2-8-3.2s-3.2-4.8-3.2-8c0-2.8,1.2-5.6,3.2-8c2-2,4.8-3.2,8-3.2h272c3.2,0,6,1.2,8,3.2s3.2,4.8,3.2,8
			c0,3.2-1.2,6-3.2,8s-4.8,3.2-8,3.2h-1.6H80.8z M393.2,153.6c-6.8,6.8-16,10.8-26,10.8c-5.2,0-10-1.2-14.4-2.8
			c-1.6-0.8-3.6-1.6-5.2-2.8c6.4-13.2,11.2-27.6,13.2-42.4c0-0.4,0-0.8,0-1.2c0.4-2.4,0.4-4.8,0.8-7.2c0-0.8,0-1.2,0-2
			c0-2.8,0.4-5.6,0.4-8.8v-6c1.6,0,3.2-0.4,4.8-0.4c10,0,19.2,4,26,10.8c6.8,6.8,10.8,16,10.8,26S400,147.2,393.2,153.6z"/>
	</g>
</g>
<g>
</g>
<g>
</g>
<g>
</g>
<g>
</g>
<g>
</g>
<g>
</g>
<g>
</g>
<g>
</g>
<g>
</g>
<g>
</g>
<g>
</g>
<g>
</g>
<g>
</g>
<g>
</g>
<g>
</g>
</svg>
